<?xml version="1.0" standalone="no"?>
<!DOCTYPE svg PUBLIC "-//W3C//DTD SVG 20010904//EN"
 "http://www.w3.org/TR/2001/REC-SVG-20010904/DTD/svg10.dtd">
<svg version="1.0" xmlns="http://www.w3.org/2000/svg"
 width="260.000000pt" height="260.000000pt" viewBox="0 0 260.000000 260.000000"
 preserveAspectRatio="xMidYMid meet">
<metadata>
Created by potrace 1.14, written by Peter Selinger 2001-2017
</metadata>
<g transform="translate(0.000000,260.000000) scale(0.100000,-0.100000)"
fill="#000000" stroke="none">
<path d="M401 2276 c-52 -29 -50 2 -51 -934 0 -948 -2 -914 55 -940 19 -9 243
-12 896 -12 945 0 911 -2 937 55 17 37 17 1753 0 1790 -26 57 8 55 -940 55
-705 -1 -878 -3 -897 -14z m1783 -52 c14 -14 16 -108 16 -884 0 -776 -2 -870
-16 -884 -14 -14 -108 -16 -884 -16 -776 0 -870 2 -884 16 -14 14 -16 108 -16
884 0 776 2 870 16 884 14 14 108 16 884 16 776 0 870 -2 884 -16z"/>
<path d="M1231 2016 c-18 -6 -51 -27 -72 -45 -113 -94 -113 -256 1 -353 71
-61 152 -73 235 -34 88 40 135 114 135 211 0 31 -6 70 -13 88 -47 111 -178
172 -286 133z m158 -35 c69 -36 121 -115 121 -186 0 -41 -22 -97 -52 -131 -98
-112 -266 -94 -336 36 -34 64 -28 152 13 212 58 81 170 112 254 69z"/>
<path d="M1241 1967 c-61 -21 -62 -40 -6 -97 27 -27 53 -50 58 -50 11 0 4 153
-8 156 -5 2 -25 -3 -44 -9z"/>
<path d="M1317 1973 c-4 -3 -7 -40 -7 -82 l0 -75 55 54 c30 30 55 58 55 62 0
16 -92 53 -103 41z"/>
<path d="M1146 1888 c-8 -13 -16 -36 -18 -53 l-3 -30 79 -3 78 -3 -48 55 c-27
31 -55 56 -61 56 -7 0 -19 -10 -27 -22z"/>
<path d="M1377 1862 c-26 -26 -47 -51 -47 -55 0 -4 34 -7 75 -7 74 0 75 0 75
25 0 33 -27 85 -43 85 -7 0 -34 -22 -60 -48z"/>
<path d="M1126 1781 c-7 -11 10 -69 25 -87 19 -23 32 -17 82 41 l48 55 -75 0
c-41 0 -77 -4 -80 -9z"/>
<path d="M1330 1782 c0 -12 94 -102 108 -102 16 0 42 53 42 85 0 25 -1 25 -75
25 -41 0 -75 -4 -75 -8z"/>
<path d="M1235 1720 c-41 -42 -48 -53 -39 -68 12 -19 81 -45 95 -36 11 6 12
154 1 154 -4 0 -30 -23 -57 -50z"/>
<path d="M1310 1698 c0 -42 4 -80 10 -83 12 -7 100 30 100 42 0 5 -25 33 -55
63 l-55 54 0 -76z"/>
<path d="M970 1430 c-5 -10 -10 -82 -10 -159 0 -134 1 -141 20 -141 19 0 20 7
20 144 0 119 3 145 15 150 40 15 45 0 45 -145 0 -132 1 -139 20 -139 19 0 20
7 20 133 0 90 4 137 12 145 16 16 23 15 42 -4 13 -12 16 -41 16 -150 0 -112 2
-134 15 -134 13 0 15 23 15 149 0 109 -3 151 -13 159 -7 6 -56 11 -110 11 -85
0 -98 -2 -107 -19z"/>
<path d="M1245 1426 c-13 -19 -15 -50 -13 -157 3 -118 5 -134 21 -137 15 -3
17 6 17 72 l0 76 55 0 55 0 0 -75 c0 -60 3 -75 15 -75 13 0 15 23 15 148 0
102 -4 152 -12 160 -7 7 -39 12 -75 12 -55 0 -64 -3 -78 -24z m120 -12 c11
-11 15 -30 13 -58 l-3 -41 -52 -3 -53 -3 0 50 c0 37 5 53 18 60 26 15 58 13
77 -5z"/>
<path d="M1452 1425 c-15 -33 -15 -87 -1 -119 9 -19 21 -26 48 -28 l36 -3 0
-55 0 -55 -43 -3 c-55 -4 -51 -26 6 -30 57 -4 82 22 82 86 0 60 -20 90 -63 94
-30 3 -32 5 -35 48 -4 50 13 70 60 70 15 0 28 5 28 10 0 6 -24 10 -53 10 -48
0 -55 -3 -65 -25z"/>
<path d="M1610 1289 c0 -147 1 -160 18 -157 15 3 17 20 20 161 2 152 2 157
-18 157 -19 0 -20 -6 -20 -161z"/>
<path d="M972 1033 c-4 -10 -7 -76 -7 -146 0 -146 6 -157 76 -157 55 0 69 20
69 94 0 71 -10 86 -57 86 -41 0 -46 -27 -5 -32 24 -3 27 -7 30 -46 4 -51 -12
-74 -47 -70 l-26 3 -3 128 -3 127 56 0 c42 0 55 3 55 15 0 24 -128 21 -138 -2z"/>
<path d="M1140 890 c0 -136 2 -160 15 -160 13 0 15 23 15 145 l0 145 40 0 c34
0 40 -3 46 -26 10 -38 -7 -78 -34 -82 -30 -5 -29 -32 2 -32 30 0 36 -16 36
-91 0 -45 3 -59 15 -59 12 0 14 24 14 142 -1 79 -5 151 -10 160 -8 14 -23 18
-74 18 l-65 0 0 -160z"/>
<path d="M1332 1038 c-8 -8 -12 -58 -12 -160 0 -125 2 -148 15 -148 12 0 15
15 15 75 l0 75 45 0 45 0 0 -75 c0 -60 3 -75 15 -75 13 0 15 23 15 148 0 102
-4 152 -12 160 -16 16 -110 16 -126 0z m106 -75 l3 -53 -45 0 -46 0 0 48 c0
27 3 52 7 56 4 4 23 6 43 4 35 -3 35 -3 38 -55z"/>
<path d="M1500 984 c0 -91 9 -104 70 -104 l50 0 0 -41 c0 -63 -13 -79 -65 -79
-33 0 -45 -4 -45 -15 0 -23 102 -21 123 3 24 26 25 302 2 302 -11 0 -15 -16
-17 -67 l-3 -68 -34 -3 c-43 -4 -51 8 -51 81 0 44 -3 57 -15 57 -12 0 -15 -14
-15 -66z"/>
</g>
</svg>
